<?xml version="1.0" encoding="UTF-8" standalone="no"?>
<svg
   xmlns:dc="http://purl.org/dc/elements/1.1/"
   xmlns:cc="http://creativecommons.org/ns#"
   xmlns:rdf="http://www.w3.org/1999/02/22-rdf-syntax-ns#"
   xmlns:svg="http://www.w3.org/2000/svg"
   xmlns="http://www.w3.org/2000/svg"
   xmlns:sodipodi="http://sodipodi.sourceforge.net/DTD/sodipodi-0.dtd"
   xmlns:inkscape="http://www.inkscape.org/namespaces/inkscape"
   height="48"
   width="48"
   inkscape:export-ydpi="52"
   inkscape:export-xdpi="52"
   inkscape:export-filename="C:\Users\userC\AppData\Roaming\kicad\scripting\plugins\kicad-action-tools\action-tools.png"
   inkscape:version="1.0beta2 (c8d5c0e, 2020-01-08)"
   sodipodi:docname="action-tools.svg"
   version="1.1"
   viewBox="0 0 48 48"
   data-name="Слой 1"
   id="Слой_1">
  <sodipodi:namedview
     inkscape:document-rotation="0"
     inkscape:current-layer="g895"
     inkscape:window-maximized="0"
     inkscape:window-y="0"
     inkscape:window-x="0"
     inkscape:cy="16.50812"
     inkscape:cx="-1.7328352"
     inkscape:zoom="8"
     showgrid="true"
     id="namedview30"
     inkscape:window-height="1041"
     inkscape:window-width="1906"
     inkscape:pageshadow="2"
     inkscape:pageopacity="0"
     guidetolerance="10"
     gridtolerance="10"
     objecttolerance="10"
     borderopacity="1"
     bordercolor="#666666"
     pagecolor="#ffffff">
    <inkscape:grid
       empspacing="2"
       opacity="0.1254902"
       color="#8383ff"
       spacingy="0.5"
       spacingx="0.5"
       id="grid2239"
       type="xygrid" />
  </sodipodi:namedview>
  <metadata
     id="metadata43">
    <rdf:RDF>
      <cc:Work
         rdf:about="">
        <cc:license
           rdf:resource="http://creativecommons.org/licenses/by-sa/4.0/" />
        <dc:format>image/svg+xml</dc:format>
        <dc:type
           rdf:resource="http://purl.org/dc/dcmitype/StillImage" />
        <dc:title>add_arc</dc:title>
      </cc:Work>
      <cc:License
         rdf:about="http://creativecommons.org/licenses/by-sa/4.0/">
        <cc:permits
           rdf:resource="http://creativecommons.org/ns#Reproduction" />
        <cc:permits
           rdf:resource="http://creativecommons.org/ns#Distribution" />
        <cc:requires
           rdf:resource="http://creativecommons.org/ns#Notice" />
        <cc:requires
           rdf:resource="http://creativecommons.org/ns#Attribution" />
        <cc:permits
           rdf:resource="http://creativecommons.org/ns#DerivativeWorks" />
        <cc:requires
           rdf:resource="http://creativecommons.org/ns#ShareAlike" />
      </cc:License>
    </rdf:RDF>
  </metadata>
  <defs
     id="defs5">
    <style
       id="style3">.cls-1{fill:#b9b9b9;}.cls-2{fill:#545454;}.cls-3{fill:#1a81c4;}</style>
    <clipPath
       id="clipPath897"
       clipPathUnits="userSpaceOnUse">
      <rect
         rx="7.8340001"
         y="0"
         x="0"
         height="48"
         width="48"
         id="rect899"
         style="fill:#f2f2f2;stroke:none;stroke-linejoin:round" />
    </clipPath>
    <clipPath
       id="clipPath1736"
       clipPathUnits="userSpaceOnUse">
      <rect
         ry="2.6555922"
         y="8.5"
         x="0"
         height="16"
         width="24"
         id="rect1738"
         style="fill:none;fill-opacity:1;stroke:#333333;stroke-width:2;stroke-linecap:round;stroke-linejoin:round;stroke-miterlimit:4;stroke-dasharray:none;stroke-opacity:1" />
    </clipPath>
    <clipPath
       id="clipPath1720"
       clipPathUnits="userSpaceOnUse">
      <rect
         ry="2.6555922"
         y="4.9999995"
         x="8"
         height="16"
         width="16"
         id="rect1722"
         style="fill:none;fill-opacity:1;stroke:#333333;stroke-width:2;stroke-linecap:round;stroke-linejoin:round;stroke-miterlimit:4;stroke-dasharray:none;stroke-opacity:1" />
    </clipPath>
    <clipPath
       id="clipPath1732"
       clipPathUnits="userSpaceOnUse">
      <rect
         ry="3.9833882"
         y="1.5000001"
         x="0"
         height="24"
         width="24"
         id="rect1734"
         style="fill:none;fill-opacity:1;stroke:#333333;stroke-width:1.99999;stroke-linecap:round;stroke-linejoin:round;stroke-miterlimit:4;stroke-dasharray:none;stroke-opacity:1" />
    </clipPath>
    <clipPath
       id="clipPath1724"
       clipPathUnits="userSpaceOnUse">
      <rect
         ry="3.9833882"
         y="1.5000001"
         x="0"
         height="24"
         width="24"
         id="rect1726"
         style="fill:none;fill-opacity:1;stroke:#333333;stroke-width:1.99999;stroke-linecap:round;stroke-linejoin:round;stroke-miterlimit:4;stroke-dasharray:none;stroke-opacity:1" />
    </clipPath>
    <clipPath
       id="clipPath906"
       clipPathUnits="userSpaceOnUse">
      <rect
         ry="3.9833882"
         y="1.5000001"
         x="0"
         height="24"
         width="24"
         id="rect904"
         style="fill:none;fill-opacity:1;stroke:#333333;stroke-width:1.99999;stroke-linecap:round;stroke-linejoin:round;stroke-miterlimit:4;stroke-dasharray:none;stroke-opacity:1" />
    </clipPath>
    <clipPath
       id="clipPath910"
       clipPathUnits="userSpaceOnUse">
      <rect
         ry="3.9833882"
         y="1.5000001"
         x="0"
         height="24"
         width="24"
         id="rect908"
         style="fill:none;fill-opacity:1;stroke:#333333;stroke-width:1.99999;stroke-linecap:round;stroke-linejoin:round;stroke-miterlimit:4;stroke-dasharray:none;stroke-opacity:1" />
    </clipPath>
  </defs>
  <title
     id="title7">icon_pcbnew</title>
  <g
     clip-path="url(#clipPath1565)"
     id="g1563">
    <g
       clip-path="url(#clipPath897)"
       id="g895">
      <rect
         style="fill:#489648;fill-opacity:1;stroke:none;stroke-width:0.99999899;stroke-opacity:1"
         id="rect9"
         rx="0"
         height="48"
         width="48"
         y="0"
         x="0"
         class="cls-1" />
      <path
         inkscape:connector-curvature="0"
         style="fill:#006400;fill-opacity:1;stroke-width:0.999999"
         sodipodi:nodetypes="ccccccaaccaaccccccc"
         id="path11"
         d="m 19,48 v -4 l 8,-5.970568 V 25 l 1,-1 h 6 c 0,0 1.128958,1.639203 2,2 2.771639,1.14805 6.228361,1.14805 9,0 1.306563,-0.541196 2.458804,-1.693437 3,-3 -0.26761,-2.960808 0.962324,-7.38699 0,-10 -0.541196,-1.306563 -1.693437,-2.458804 -3,-3 -2.771639,-1.1480503 -6.228361,-1.1480503 -9,0 -0.435521,0.180399 -1,1 -1,1 H 32 L 29,8 V 0 C 19.989874,-0.00320694 4.05901,0.00249473 -0.00413753,0.00257361 0,6.5 -1e-8,48 -1e-8,48 3,47.944449 7.618659,48 19,48 Z"
         class="cls-2" />
      <path
         inkscape:connector-curvature="0"
         sodipodi:nodetypes="cccc"
         id="path2253"
         d="M 40.5,18 H 29 L 22,11 V -0.5"
         style="fill:none;stroke:#489648;stroke-width:4;stroke-linecap:butt;stroke-linejoin:miter;stroke-miterlimit:4;stroke-dasharray:none;stroke-opacity:1" />
      <g
         style="stroke-width:0.48777926"
         transform="matrix(2.1007353,0,0,2.0007002,-5.8158181,-1.3489937)"
         id="g2245">
        <path
           inkscape:connector-curvature="0"
           d="m 24.0464,9.6716 c 0.01666,0.92263 -0.689803,1.788674 -1.596971,1.9577 -0.900331,0.202302 -1.891005,-0.315085 -2.239427,-1.169559 -0.379637,-0.8410705 -0.07257,-1.9157025 0.694131,-2.4292153 0.755018,-0.5479002 1.884301,-0.4542902 2.539321,0.2096171 0.38285,0.3706695 0.605209,0.8985716 0.602946,1.4314572 z"
           style="fill:#f29100;fill-opacity:1;stroke-width:0.48777926"
           id="path25" />
        <path
           inkscape:connector-curvature="0"
           d="m 23.0471,9.671111 c 0.01721,0.575481 -0.54098,1.074706 -1.110978,0.993612 -0.573846,-0.04664 -1.008169,-0.656695 -0.864436,-1.214203 0.109783,-0.5668907 0.767417,-0.92955 1.30554,-0.7235365 0.39433,0.1323668 0.675168,0.5281566 0.669874,0.9441275 z"
           style="fill:#f2f2f2;fill-opacity:1;stroke-width:0.48777926"
           id="path27" />
      </g>
      <path
         inkscape:connector-curvature="0"
         inkscape:transform-center-y="-0.0417481"
         inkscape:transform-center-x="4.9430824"
         sodipodi:nodetypes="ccc"
         id="path2255"
         d="M 10,29 H 0.76923063 0"
         style="fill:none;stroke:#489648;stroke-width:2.86446;stroke-linecap:butt;stroke-linejoin:miter;stroke-miterlimit:4;stroke-dasharray:none;stroke-opacity:1" />
      <g
         style="stroke-width:0.48777926"
         transform="matrix(2.1007353,0,0,2.0007002,-39.467859,9.5821874)"
         id="g2251">
        <path
           inkscape:connector-curvature="0"
           style="fill:#f29100;fill-opacity:1;stroke-width:0.48777926"
           id="path2247"
           d="m 24.0464,9.6716 a 1.9993,1.9993 0 1 1 -1.9992,-2 1.9995,1.9995 0 0 1 1.9992,2 z"
           class="cls-3" />
        <path
           inkscape:connector-curvature="0"
           style="fill:#ffffff;fill-opacity:1;stroke-width:0.48777926"
           id="path2249"
           d="M 23.0471,9.671111 A 1,1 0 1 1 22.04717,8.6709 1.0000702,1.0000702 0 0 1 23.0471,9.671111 Z"
           class="cls-1" />
      </g>
      <path
         inkscape:connector-curvature="0"
         sodipodi:nodetypes="cccccc"
         id="path2263"
         d="m 7,48 v -9 l 8,-6 V 26 L 7,18 V -0.5"
         style="fill:none;stroke:#489648;stroke-width:2;stroke-linecap:butt;stroke-linejoin:miter;stroke-miterlimit:4;stroke-dasharray:none;stroke-opacity:1" />
      <path
         inkscape:connector-curvature="0"
         sodipodi:nodetypes="cccccc"
         id="path2265"
         d="m 11,48 v -7 l 8,-6 V 24 L 11,16 V -0.5"
         style="fill:none;stroke:#489648;stroke-width:2;stroke-linecap:butt;stroke-linejoin:miter;stroke-miterlimit:4;stroke-dasharray:none;stroke-opacity:1" />
      <path
         inkscape:connector-curvature="0"
         sodipodi:nodetypes="cccccc"
         id="path2267"
         d="m 15,48 v -5 l 8,-6 V 22 L 15,14 V -0.5"
         style="fill:none;stroke:#489648;stroke-width:2;stroke-linecap:butt;stroke-linejoin:miter;stroke-miterlimit:4;stroke-dasharray:none;stroke-opacity:1" />
      <g
         clip-path="none"
         transform="matrix(2,0,0,2,-12,-13)"
         id="g913">
        <rect
           transform="matrix(-0.85434278,0,0,1.2815141,40.222712,-0.85926913)"
           clip-path="url(#clipPath1736)"
           ry="1"
           rx="1.5000001"
           y="17.057377"
           x="13.136076"
           height="3.9016349"
           width="8.1934328"
           id="rect878"
           style="fill:#006400;fill-opacity:1;stroke:none;stroke-width:1.81332;stroke-linecap:round;stroke-linejoin:round" />
        <rect
           transform="matrix(-1,0,0,0.99999997,45,7.0000004)"
           clip-path="url(#clipPath1720)"
           ry="1"
           rx="0"
           y="15"
           x="17"
           height="3"
           width="5"
           id="rect880"
           style="fill:#dd8d15;fill-opacity:1;stroke:none;stroke-width:1.34164;stroke-linecap:round;stroke-linejoin:round" />
        <path
           transform="matrix(-0.66666667,0,0,0.66666667,37.5,11)"
           clip-path="url(#clipPath1732)"
           sodipodi:nodetypes="cc"
           id="path886"
           d="m 18,21 v 3"
           style="fill:none;stroke:#489648;stroke-width:2.99999999;stroke-linecap:butt;stroke-linejoin:miter;stroke-miterlimit:4;stroke-dasharray:none;stroke-opacity:1" />
        <path
           transform="matrix(-0.66666667,0,0,0.66666667,36,11)"
           clip-path="url(#clipPath1724)"
           sodipodi:nodetypes="cc"
           id="path1080"
           d="M 23.25,18.75 H 19.5"
           style="fill:none;stroke:#489648;stroke-width:1.5;stroke-linecap:butt;stroke-linejoin:miter;stroke-miterlimit:4;stroke-dasharray:none;stroke-opacity:1" />
        <path
           transform="matrix(-0.66666667,0,0,0.66666667,43.5,11)"
           clip-path="url(#clipPath1724)"
           sodipodi:nodetypes="cc"
           id="path903"
           d="M 23.25,18.75 H 19.5"
           style="fill:none;stroke:#489648;stroke-width:1.5;stroke-linecap:butt;stroke-linejoin:miter;stroke-miterlimit:4;stroke-dasharray:none;stroke-opacity:1" />
        <path
           transform="matrix(-0.66666667,0,0,0.66666667,37.5,5.9999999)"
           clip-path="url(#clipPath1732)"
           sodipodi:nodetypes="cc"
           id="path905"
           d="m 18,21 v 3"
           style="fill:none;stroke:#489648;stroke-width:2.99999999;stroke-linecap:butt;stroke-linejoin:miter;stroke-miterlimit:4;stroke-dasharray:none;stroke-opacity:1" />
      </g>
      <g
         clip-path="none"
         transform="matrix(2,0,0,2,-12,-4.0000001)"
         id="g927">
        <rect
           transform="matrix(-0.85434278,0,0,1.2815141,40.222712,1.140731)"
           clip-path="url(#clipPath935)"
           ry="1"
           rx="1.5000001"
           y="17.057377"
           x="13.136076"
           height="3.9016349"
           width="8.1934328"
           id="rect915"
           style="fill:#006400;fill-opacity:1;stroke:none;stroke-width:1.81332;stroke-linecap:round;stroke-linejoin:round" />
        <rect
           transform="matrix(-1,0,0,0.99999997,45,9.0000005)"
           clip-path="url(#clipPath931)"
           ry="1"
           rx="0"
           y="15"
           x="17"
           height="3"
           width="5"
           id="rect917"
           style="fill:#dd8d15;fill-opacity:1;stroke:none;stroke-width:1.34164;stroke-linecap:round;stroke-linejoin:round" />
      </g>
      <g
         transform="matrix(2,0,0,2,0.2392,-0.2442)"
         id="g855">
        <path
           inkscape:connector-curvature="0"
           id="path27387"
           d="M 21.4039,18.47 10.1376,7.1234 a 4.3823,4.3823 0 0 0 -0.05,-2.9968 C 9.0998,1.6707 6.7376,0.7228 4.2476,1.0244 L 6.9958,3.8251 6.433,6.3251 3.8748,6.978 1.01,4.2976 c -0.2333,2.5061 0.7749,4.85 3.2484,5.7738 a 4.2369,4.2369 0 0 0 2.68,0.0645 l 11.445,11.5167 a 2.1939,2.1939 0 0 0 3.02,-3.1827 z M 20.19,21.325 A 0.9173,0.9173 0 1 1 21.1042,20.4076 0.9158,0.9158 0 0 1 20.19,21.325 Z"
           class="cls-1" />
        <path
           inkscape:connector-curvature="0"
           id="path27389"
           d="M 22.6447,3.1955 20.6918,1.2847 A 1.1,1.1 0 0 0 19.1365,1.3 l -5.5089,5.6038 c 0.0872,1.2688 -0.3925,1.6188 -0.3925,1.6188 L 13.8804,9.1221 4.5532,18.48 4.2389,18.1555 3.04,19.3371 1.0556,22.4 l 0.327,0.2844 0.004,-0.0042 0.2918,0.29 2.9892,-2.1051 1.0838,-1.2886 -0.2852,-0.249 9.3268,-9.3575 0.7968,0.74 a 1.9241,1.9241 0 0 1 1.57,-0.35 l 5.5,-5.5953 A 1.1092,1.1092 0 0 0 22.6447,3.1955 Z"
           class="cls-2" />
      </g>
    </g>
  </g>
</svg>
