<?xml version="1.0" encoding="UTF-8" standalone="no"?>
<svg
   xmlns:dc="http://purl.org/dc/elements/1.1/"
   xmlns:cc="http://creativecommons.org/ns#"
   xmlns:rdf="http://www.w3.org/1999/02/22-rdf-syntax-ns#"
   xmlns:svg="http://www.w3.org/2000/svg"
   xmlns="http://www.w3.org/2000/svg"
   xmlns:sodipodi="http://sodipodi.sourceforge.net/DTD/sodipodi-0.dtd"
   xmlns:inkscape="http://www.inkscape.org/namespaces/inkscape"
   height="48"
   width="48"
   version="1.1"
   id="svg3054"
   inkscape:version="0.48.4 r9939"
   sodipodi:docname="annular_pad_dimensions.svg">
  <metadata
     id="metadata3081">
    <rdf:RDF>
      <cc:Work
         rdf:about="">
        <dc:format>image/svg+xml</dc:format>
        <dc:type
           rdf:resource="http://purl.org/dc/dcmitype/StillImage" />
        <dc:title></dc:title>
      </cc:Work>
    </rdf:RDF>
  </metadata>
  <sodipodi:namedview
     pagecolor="#ffffff"
     bordercolor="#666666"
     borderopacity="1"
     objecttolerance="10"
     gridtolerance="10"
     guidetolerance="10"
     inkscape:pageopacity="0"
     inkscape:pageshadow="2"
     inkscape:window-width="879"
     inkscape:window-height="789"
     id="namedview3079"
     showgrid="false"
     inkscape:zoom="4.9166667"
     inkscape:cx="25.116"
     inkscape:cy="26.510998"
     inkscape:window-x="219"
     inkscape:window-y="76"
     inkscape:window-maximized="0"
     inkscape:current-layer="svg3054" />
  <defs
     id="defs3056">
    <filter
       id="a"
       height="1.2769"
       width="1.2769"
       color-interpolation-filters="sRGB"
       y="-.13847"
       x="-.13847">
      <feGaussianBlur
         stdDeviation="0.11539203"
         id="feGaussianBlur3059" />
    </filter>
    <marker
       id="h"
       refY="0"
       refX="0"
       overflow="visible"
       orient="auto"
       style="overflow:visible">
      <path
         d="M 8.7186,4.0337 -2.2074,0.016 8.7186,-4.0017 c -1.7455,2.3721 -1.7354,5.6175 -6e-7,8.0354 z"
         transform="scale(0.6,0.6)"
         id="path10"
         inkscape:connector-curvature="0"
         style="fill-rule:evenodd;stroke-width:0.625;stroke-linejoin:round" />
    </marker>
    <marker
       id="g"
       refY="0"
       refX="0"
       overflow="visible"
       orient="auto"
       style="overflow:visible">
      <path
         d="M 8.7186,4.0337 -2.2074,0.016 8.7186,-4.0017 c -1.7455,2.3721 -1.7354,5.6175 -6e-7,8.0354 z"
         transform="scale(-0.6,-0.6)"
         id="path13"
         inkscape:connector-curvature="0"
         style="fill-rule:evenodd;stroke-width:0.625;stroke-linejoin:round" />
    </marker>
    <marker
       id="h-4"
       refY="0"
       refX="0"
       overflow="visible"
       orient="auto"
       style="overflow:visible">
      <path
         d="M 8.7186,4.0337 -2.2074,0.016 8.7186,-4.0017 c -1.7455,2.3721 -1.7354,5.6175 -6e-7,8.0354 z"
         transform="scale(0.6,0.6)"
         id="path10-0"
         inkscape:connector-curvature="0"
         style="fill-rule:evenodd;stroke-width:0.625;stroke-linejoin:round" />
    </marker>
    <marker
       id="g-9"
       refY="0"
       refX="0"
       overflow="visible"
       orient="auto"
       style="overflow:visible">
      <path
         d="M 8.7186,4.0337 -2.2074,0.016 8.7186,-4.0017 c -1.7455,2.3721 -1.7354,5.6175 -6e-7,8.0354 z"
         transform="scale(-0.6,-0.6)"
         id="path13-4"
         inkscape:connector-curvature="0"
         style="fill-rule:evenodd;stroke-width:0.625;stroke-linejoin:round" />
    </marker>
    <marker
       id="marker4760"
       refY="0"
       refX="0"
       overflow="visible"
       orient="auto"
       style="overflow:visible">
      <path
         d="M 8.7186,4.0337 -2.2074,0.016 8.7186,-4.0017 c -1.7455,2.3721 -1.7354,5.6175 -6e-7,8.0354 z"
         transform="scale(0.6,0.6)"
         id="path4762"
         inkscape:connector-curvature="0"
         style="fill-rule:evenodd;stroke-width:0.625;stroke-linejoin:round" />
    </marker>
    <marker
       id="marker4764"
       refY="0"
       refX="0"
       overflow="visible"
       orient="auto"
       style="overflow:visible">
      <path
         d="M 8.7186,4.0337 -2.2074,0.016 8.7186,-4.0017 c -1.7455,2.3721 -1.7354,5.6175 -6e-7,8.0354 z"
         transform="scale(-0.6,-0.6)"
         id="path4766"
         inkscape:connector-curvature="0"
         style="fill-rule:evenodd;stroke-width:0.625;stroke-linejoin:round" />
    </marker>
  </defs>
  <g
     transform="matrix(1.286,0,0,1.2826,58.06922,-14.528373)"
     id="g3061"
     inkscape:export-filename="C:\Cad\Progetti_K\3D-FreeCad-tools\annular.png"
     inkscape:export-xdpi="53.68"
     inkscape:export-ydpi="53.68">
    <g
       transform="matrix(11.8,0,0,11.536,-260.89,-12.073)"
       id="g3063"
       style="opacity:0.71875;filter:url(#a)">
      <path
         d="m -15.125,8.9375 a 0.90625,0.9375 0 1 1 -1.8125,0 0.90625,0.9375 0 1 1 1.8125,0 z"
         transform="matrix(1.1034,0,-2.1667e-7,1.0667,37.69,-5.5333)"
         id="path3065"
         inkscape:connector-curvature="0"
         style="fill-rule:evenodd" />
    </g>
    <path
       d="m -15.125,8.9375 a 0.90625,0.9375 0 1 1 -1.8125,0 0.90625,0.9375 0 1 1 1.8125,0 z"
       transform="matrix(9.1879,0,-1.8041e-6,8.7704,119.31,-46.412)"
       id="path3067"
       inkscape:connector-curvature="0"
       style="fill:none;stroke:#16bf11;stroke-width:0.79392999" />
    <g
       transform="matrix(4.6582,0,0,4.6768,-121.15,13.266)"
       id="g3069"
       style="fill:#ffffff">
      <path
         d="m -15.125,8.9375 a 0.90625,0.9375 0 1 1 -1.8125,0 0.90625,0.9375 0 1 1 1.8125,0 z"
         transform="matrix(1.1034,0,-2.1667e-7,1.0667,37.69,-5.5333)"
         id="path3071"
         inkscape:connector-curvature="0"
         style="fill:#ffffff;fill-rule:evenodd" />
    </g>
  </g>
  <g
     transform="matrix(3.3534,0,0,2.4765,-1.5227797,14.344627)"
     id="g3073"
     inkscape:export-filename="C:\Cad\Progetti_K\3D-FreeCad-tools\annular.png"
     inkscape:export-xdpi="53.68"
     inkscape:export-ydpi="53.68">
    <rect
       height="16"
       width="16"
       y="0"
       x="0"
       id="rect3075"
       style="fill-opacity:0" />
  </g>
  <path
     d="m 30.69521,26.522581 a 8.707635,8.658066 0 0 1 -17.41527,0 8.707635,8.658066 0 1 1 17.41527,0 z"
     id="path3077"
     inkscape:connector-curvature="0"
     style="fill:none;stroke:#ff0c0c;stroke-width:6.90841627;stroke-linejoin:round"
     inkscape:export-filename="C:\Cad\Progetti_K\3D-FreeCad-tools\annular.png"
     inkscape:export-xdpi="53.68"
     inkscape:export-ydpi="53.68" />
  <g
     id="g50"
     transform="matrix(1.6262979,0,0,1.2104957,-29.057051,-8.38233)">
    <rect
       style="fill-opacity:0"
       id="rect52"
       x="0"
       y="0"
       width="16"
       height="16" />
  </g>
</svg>
